<svg xmlns="http://www.w3.org/2000/svg" width="540" height="966" viewBox="0 0 540 966">
  <rect width="540" height="966" fill="#111722"/>
  <rect x="54" y="20" width="432" height="760" fill="#263426" opacity="0.8"/>
  <rect x="54" y="0" width="432" height="76" fill="#3b2029" opacity="0.72"/>
  <rect x="54" y="304" width="432" height="380" fill="#243b28" opacity="0.82"/>
  <rect x="54" y="684" width="432" height="76" fill="#3c202a" opacity="0.72"/>
  <g stroke="#b7c2cc" stroke-opacity="0.2">
    <path d="M54 20v760M126 20v760M198 20v760M270 20v760M342 20v760M414 20v760M486 20v760"/>
    <path d="M54 20h432M54 96h432M54 172h432M54 248h432M54 324h432M54 400h432M54 476h432M54 552h432M54 628h432M54 704h432M54 780h432"/>
  </g>
  <rect x="54" y="324" width="432" height="380" fill="none" stroke="#89d37f" stroke-width="3" opacity="0.65"/>
  <rect x="228" y="712" width="84" height="46" rx="6" fill="#1b151a" stroke="#b89b5b" stroke-width="2"/>
  <rect x="22" y="790" width="132" height="132" rx="14" fill="#15303a" stroke="#5fd4e0" stroke-width="2" opacity="0.8"/>
  <path d="M80 822l24 38-24 38-24-38z" fill="#5fd4e0" opacity="0.9"/>
  <rect x="132" y="810" width="330" height="126" rx="10" fill="#252d38" stroke="#80683a" stroke-width="3"/>
</svg>
